<!--?xml version="1.0" encoding="utf-8"?-->
<!-- Generator: Adobe Illustrator 18.1.1, SVG Export Plug-In . SVG Version: 6.00 Build 0)  -->

<svg version="1.1" id="_x31_0" xmlns="http://www.w3.org/2000/svg" xmlns:xlink="http://www.w3.org/1999/xlink" x="0px" y="0px" viewBox="0 0 512 512" style="width: 16px; height: 16px; opacity: 1;" xml:space="preserve">
<style type="text/css">
	.st0{fill:#374149;}
</style>
<g>
	<path class="st0" d="M213.42,142.101c1.539-5.848,5.644-10.875,11.386-13.442c0.875-0.41,1.797-0.718,2.719-0.973
		c2.003-2.05,4.003-4.054,5.953-6c2.207,2,4.617,4.203,7.18,6.563c2.926,2.668,5.953,5.492,9.031,8.312
		c3.695,3.387,7.437,6.77,10.824,9.902c2.668,2.461,5.129,4.719,7.285,6.668c0.309,0.258,0.618,0.512,0.871,0.82
		c0.258,0.309,0.566,0.618,0.926,0.719c0.664,0.41,1.383,0.718,2,0.977c1.23,0.664,2.41,1.179,3.282,1.64l1.488-1.594
		c-0.511-0.871-1.129-1.996-1.898-3.179c-0.309-0.614-0.77-1.23-1.129-1.895c-0.203-0.363-0.512-0.671-0.82-0.824
		c-0.309-0.254-0.668-0.562-0.922-0.871c-4.926-4.511-11.492-10.519-18.058-16.57c-5.656-5.148-11.191-10.183-15.766-14.398
		c-0.074-0.074-0.164-0.152-0.238-0.226c3.898-3.898,7.59-7.484,11.129-10.922c4.465,4.156,9.902,9.129,15.34,14.11
		c6.566,6.05,13.184,12.054,18.11,16.566c0.309,0.308,0.617,0.566,0.871,0.824c0.258,0.305,0.566,0.613,0.926,0.77
		c0.664,0.308,1.382,0.714,2,0.973c1.23,0.668,2.41,1.179,3.336,1.59l1.434-1.59c-0.512-0.871-1.129-1.95-1.898-3.18
		c-0.309-0.566-0.715-1.234-1.129-1.898c-0.203-0.309-0.512-0.618-0.821-0.82c-0.308-0.258-0.613-0.512-0.922-0.821
		c-4.926-4.515-11.492-10.57-18.058-16.57c-5.106-4.668-10.07-9.199-14.379-13.113l-0.746-0.695
		c4.098-3.997,7.894-7.485,11.378-10.665c4.258,3.899,9.234,8.466,14.211,13.032c6.566,6.003,13.183,12.003,18.109,16.57
		c0.309,0.207,0.618,0.516,0.871,0.821c0.258,0.309,0.566,0.566,0.926,0.718c0.664,0.359,1.382,0.719,2,1.027
		c1.23,0.614,2.41,1.126,3.336,1.59l1.433-1.645c-0.511-0.816-1.129-1.949-1.898-3.129c-0.304-0.618-0.714-1.23-1.129-1.898
		c-0.203-0.359-0.511-0.664-0.82-0.821c-0.305-0.258-0.614-0.562-0.922-0.87l-18.059-16.566c-4.82-4.363-9.644-8.778-13.851-12.626
		c4.465-4,8.414-7.285,11.442-9.59l35.343,32.422l4.774-5.183l-47.863-54.531c-11.594-13.442-32.371-15.234-41.246-5.594
		L117.795,169.343L4.83,292.616c-8.875,9.746-5.332,30.321,9.082,40.633l58.535,42.887l4.649-5l0.015-0.012l-0.004-0.004l0.11-0.114
		l-35.398-32.426c1.844-2.906,4.465-6.602,7.562-10.808c0.184-0.234,0.317-0.43,0.504-0.668c4.102,3.793,8.918,8.148,13.738,12.558
		c6.566,6.05,13.133,12.05,18.058,16.566c0.305,0.309,0.614,0.566,0.871,0.82c0.254,0.363,0.562,0.618,0.922,0.77
		c0.719,0.359,1.387,0.668,2.051,1.027c1.234,0.618,2.363,1.129,3.285,1.539l1.438-1.539c-0.515-0.926-1.129-2-1.847-3.179
		c-0.41-0.566-0.77-1.23-1.18-1.95c-0.207-0.309-0.461-0.562-0.77-0.82c-0.41-0.258-0.668-0.516-0.977-0.821
		c-4.922-4.515-11.488-10.519-18.054-16.519c-4.977-4.566-9.953-9.133-14.211-12.981c2.794-3.695,5.894-7.691,9.371-12.015
		c0.098-0.121,0.18-0.222,0.278-0.344l15.078,13.848c6.566,6.004,13.133,12.054,18.059,16.57c0.305,0.254,0.613,0.511,0.871,0.82
		c0.254,0.359,0.562,0.566,0.972,0.718c0.668,0.36,1.336,0.719,2.004,1.028c1.23,0.613,2.359,1.125,3.282,1.59l1.488-1.59
		c-0.562-0.875-1.129-2.004-1.898-3.184c-0.41-0.613-0.77-1.179-1.179-1.898c-0.203-0.355-0.462-0.613-0.77-0.82
		c-0.36-0.254-0.668-0.562-0.973-0.871c-4.926-4.516-11.492-10.516-18.058-16.52c-5.438-4.976-10.825-9.949-15.34-14.054
		c3.078-3.797,6.359-7.801,9.847-12.058l34.066,31.191c0.305,0.309,0.664,0.566,0.871,0.824c0.258,0.305,0.566,0.614,0.973,0.766
		c0.668,0.36,1.336,0.668,1.953,0.977c1.282,0.664,2.462,1.18,3.332,1.59l1.489-1.538c-0.512-0.922-1.129-2-1.898-3.23
		c-0.41-0.566-0.77-1.231-1.18-1.898c-0.203-0.309-0.461-0.618-0.82-0.821c-0.309-0.258-0.618-0.515-0.871-0.824
		c-4.977-4.512-11.492-10.566-18.11-16.516c-5.746-5.336-11.492-10.621-16.21-14.878c3.218-3.782,6.538-7.715,10.015-11.801
		l0.039-0.047c4.77,4.309,10.668,9.746,16.672,15.234c6.566,6,13.133,12.054,18.058,16.57c0.309,0.258,0.664,0.512,0.922,0.82
		c0.207,0.309,0.516,0.562,0.926,0.719c0.665,0.41,1.333,0.714,1.95,0.973c1.282,0.668,2.41,1.183,3.332,1.644l1.488-1.594
		c-0.511-0.871-1.129-1.996-1.898-3.18c-0.359-0.613-0.77-1.23-1.179-1.894c-0.153-0.363-0.461-0.672-0.821-0.824
		c-0.308-0.254-0.617-0.562-0.871-0.871c-4.976-4.515-11.542-10.519-18.109-16.57c-6.055-5.538-12.004-10.976-16.778-15.339
		c3.274-3.782,6.649-7.715,10.121-11.703l0.039-0.043c4.825,4.414,10.977,9.953,17.133,15.648l18.059,16.566
		c0.308,0.258,0.667,0.566,0.922,0.825c0.207,0.305,0.515,0.613,0.875,0.77c0.718,0.308,1.382,0.664,2,0.972
		c1.281,0.668,2.41,1.18,3.382,1.59l1.386-1.59c-0.461-0.87-1.078-1.949-1.847-3.179c-0.359-0.566-0.719-1.23-1.18-1.898
		c-0.152-0.359-0.461-0.618-0.82-0.821c-0.309-0.258-0.562-0.515-0.871-0.82l-35.347-32.371c3.335-3.847,6.773-7.746,10.312-11.695
		c4.875,4.461,11.133,10.207,17.442,16.054c6.566,6.004,13.133,12.004,18.058,16.57c0.309,0.207,0.668,0.512,0.922,0.821
		c0.207,0.308,0.516,0.566,0.875,0.718c0.719,0.359,1.383,0.668,2,0.977c1.282,0.664,2.41,1.176,3.387,1.641l1.382-1.641
		c-0.461-0.824-1.074-1.954-1.847-3.133c-0.36-0.614-0.719-1.23-1.18-1.898c-0.153-0.356-0.512-0.664-0.82-0.817
		c-0.309-0.262-0.563-0.566-0.871-0.874c-4.926-4.516-11.543-10.516-18.11-16.57c-6.363-5.797-12.672-11.594-17.543-16.059
		c3.367-3.777,6.844-7.66,10.317-11.538l0.042-0.051l17.75,16.207c6.515,6.054,13.082,12.008,18.008,16.519
		c0.308,0.309,0.668,0.618,0.922,0.871c0.207,0.309,0.516,0.566,0.875,0.77c0.77,0.309,1.382,0.672,2,0.977
		c1.281,0.668,2.41,1.179,3.386,1.59l1.383-1.59c-0.461-0.875-1.074-1.95-1.848-3.18c-0.355-0.566-0.714-1.234-1.179-1.898
		c-0.153-0.309-0.462-0.617-0.821-0.871c-0.305-0.258-0.562-0.461-0.871-0.77c-4.926-4.515-11.542-10.57-18.109-16.57l-17.75-16.262
		c3.438-3.797,6.926-7.644,10.414-11.542c4.926,4.515,11.39,10.414,17.902,16.363c6.57,5.949,13.082,12.004,18.007,16.519
		c0.309,0.258,0.618,0.512,0.926,0.871c0.254,0.309,0.511,0.512,0.87,0.718c0.77,0.36,1.383,0.668,2.051,0.973
		c1.23,0.618,2.359,1.133,3.336,1.641l1.382-1.641c-0.461-0.871-1.074-1.945-1.793-3.125c-0.41-0.617-0.77-1.234-1.23-1.902
		c-0.156-0.41-0.465-0.664-0.824-0.871c-0.305-0.254-0.562-0.562-0.922-0.82c-4.874-4.516-11.492-10.516-18.058-16.57
		c-6.465-5.898-12.926-11.851-17.801-16.363c1.797-1.95,3.594-4.004,5.489-6.004c1.695-1.844,3.335-3.59,4.976-5.438
		c4.926,4.516,11.391,10.414,17.856,16.313c6.617,6.054,13.133,12.054,18.105,16.57c0.258,0.308,0.566,0.566,0.875,0.82
		c0.254,0.359,0.512,0.617,0.871,0.82c0.77,0.309,1.438,0.618,2.05,0.977c1.286,0.618,2.36,1.129,3.336,1.539l1.387-1.539
		c-0.516-0.922-1.078-1.949-1.797-3.18c-0.41-0.566-0.821-1.23-1.23-1.949c-0.157-0.309-0.465-0.566-0.825-0.82
		c-0.305-0.258-0.562-0.512-0.922-0.774c-4.875-4.512-11.492-10.562-18.058-16.566c-6.461-5.954-12.875-11.852-17.801-16.313
		c3.539-3.902,7.078-7.695,10.57-11.442c4.871,4.512,11.285,10.364,17.75,16.262c6.618,6,13.184,12.054,18.11,16.57
		c0.254,0.254,0.562,0.512,0.871,0.821c0.254,0.359,0.511,0.566,0.871,0.77c0.77,0.359,1.437,0.668,2.05,0.976
		c1.286,0.614,2.363,1.126,3.336,1.59l1.386-1.59c-0.515-0.87-1.078-1.949-1.847-3.129c-0.359-0.617-0.77-1.234-1.129-1.953
		c-0.207-0.359-0.512-0.614-0.871-0.82c-0.309-0.258-0.566-0.563-0.926-0.821c-4.922-4.566-11.493-10.515-18.059-16.57
		c-6.41-5.847-12.773-11.746-17.699-16.21c3.645-3.848,7.133-7.641,10.672-11.336c4.875,4.461,11.184,10.258,17.547,16.054
		l9.27,8.485l8.843,8.297c-0.038-0.098-0.078-0.215-0.117-0.313l0.113,0.102c0.051,0.054,0.102,0.102,0.153,0.156
		c-1.282-3.336-2.668-7.078-4.051-11.289c-3.285-3.023-6.824-6.309-10.363-9.539c-6.363-5.851-12.671-11.543-17.496-16.008
		c3.645-3.898,7.234-7.64,10.774-11.285c3.027,2.82,6.672,6.156,10.516,9.695c2.206,2,4.414,4.051,6.671,6.106
		c1.57,1.418,3.11,2.82,4.637,4.214c0.473,0.489,0.981,0.969,1.418,1.469c-0.02-0.074-0.039-0.156-0.058-0.23
		c0.07,0.062,0.144,0.126,0.21,0.188c-0.77-2.973-1.438-6.153-2-9.489c-0.106-0.106-0.258-0.203-0.359-0.308l-11.75-10.723
		l-5.418-4.957l-0.019-0.016C209.674,145.949,211.522,143.999,213.42,142.101z M26.534,315.757
		c-0.668,1.023-2.055,1.226-3.028,0.461l-2.206-1.641c-4.461-3.39-6.719-8.109-7.438-10.824c-0.102-0.672,0.102-1.336,0.613-1.902
		l62.485-68.175c1.488-1.645,4.207-0.157,3.542,1.898c-7.902,8.102-16.57,18.414-25.086,30.266
		c-12.469,17.339-21.805,34.066-26.523,46.48C28.072,313.55,27.303,314.678,26.534,315.757z" style="fill: rgb(75, 75, 75);"></path>
	<path class="st0" d="M249.893,205.097c13.289,15.957,36.937,44.278,58.331,69.977c2.153,2.668,4.36,5.23,6.466,7.797
		c1.332-10.106,2.769-20.622,4.152-31.293c0.512-3.641,0.977-7.234,1.386-10.723c-2.206-2.359-4.359-4.718-6.566-7.078
		c-22.472-24.215-44.633-48.122-62.074-66.793c-5.664-6.082-10.786-11.582-15.301-16.36c-0.996-1.109-1.993-2.218-2.902-3.254
		c0.004,0.074,0.015,0.137,0.023,0.211c-0.062-0.063-0.129-0.137-0.187-0.196c0.102,1.074,0.206,2.102,0.359,3.13
		c1.027,9.542,2.875,18.164,4.977,25.598c1.027,3.746,2.102,7.183,3.234,10.262C245.893,198.175,249.893,205.097,249.893,205.097z" style="fill: rgb(75, 75, 75);"></path>
	<path class="st0" d="M495.572,326.734c-12.825-14.778-30.266-22.574-46.734-22.574c-11.031,0-21.598,3.488-30.012,10.828
		c-5.175,4.504-8.973,10.07-11.542,16.211c-0.375,0.84-0.786,1.641-1.122,2.511c-6.461-7.074-15.367-16.648-25.758-27.906
		c-1.859-1.946-3.746-4.02-5.664-6.086l-1.051-1.289c0,0-0.007,0.106-0.011,0.148c-0.051-0.054-0.098-0.105-0.149-0.16
		c-1.336,16.57-2.207,28.574-2.465,31.238c-0.05,0.359-0.05,0.719-0.05,0.719l-0.203,1.898c2.102,1.386,4.309,3.133,6.566,5.129
		c4.156,3.644,8.515,8.16,12.976,13.238c8.469,9.594,15.391,20.366,21.856,31.445c2.156,3.695,4.668,7.234,7.644,10.57
		c12.825,14.774,30.266,22.57,46.684,22.57c11.082,0,21.648-3.539,30.062-10.875C517.529,386.139,517.068,351.406,495.572,326.734z
		 M435.142,379.315c-6.34-7.25-9.582-15.988-9.762-24.285c-0.004-0.153-0.016-0.305-0.02-0.457
		c-0.066-8.317,2.973-16.153,9.164-21.528c5.027-4.363,11.336-6.469,17.902-6.469c9.801,0,20.215,4.672,27.859,13.442
		c6.34,7.258,9.586,16.004,9.762,24.309c0,0.141,0.016,0.285,0.016,0.426c0.07,8.332-2.969,16.184-9.164,21.59
		c-5.027,4.363-11.336,6.465-17.953,6.465C453.146,392.807,442.782,388.139,435.142,379.315z" style="fill: rgb(75, 75, 75);"></path>
	<path class="st0" d="M351.165,109.906c-0.008,0.066-0.019,0.148-0.031,0.214c-0.043-0.078-0.082-0.156-0.125-0.234
		c-3.645,26.007-9.649,71.101-15.75,116.964c-1.179,8.821-2.308,17.649-3.488,26.418c-1.95,14.93-3.902,29.55-5.645,43.25
		c-0.152,1.23-0.308,2.461-0.461,3.692c-3.05,23.062-5.718,43.109-7.531,57.258c-0.222,1.558-0.434,3.046-0.641,4.465
		c-6.191-4.383-13.301-7.192-21.07-8.012c-1.382-0.102-2.82-0.203-4.206-0.203c-4.566,0-9.027,0.77-13.336,2.102
		c-19.957,6.363-35.809,26.625-38.324,52.07c-3.282,32.523,16.469,61.152,44.07,63.973c1.383,0.102,2.821,0.203,4.203,0.203
		c4.566,0,9.031-0.77,13.34-2.102c19.957-6.363,35.809-26.626,38.32-52.07c0.465-4.41,0.516-8.824,0.106-13.027
		c-1.078-12.52-1.644-25.039-0.414-37.555c1.695-15.801,4.414-28.934,10.109-34.836c1.078-1.179,2.309-2.05,3.641-2.613
		c0.871-0.359,0.871-0.359,2.055-0.566c0.613-0.102,1.23-0.153,1.894-0.153c0.05,0,0.05,0,0.106,0c0,0,0-0.152,0-0.562
		c0.304-3.23,1.64-20.574,3.437-43.297c0.102-1.179,0.203-2.414,0.254-3.644c3.027-37.965,7.027-89.058,9.082-115.016
		c0,0-1.75-18.445-12.129-41.73C356.518,120.058,354.064,115.026,351.165,109.906z M343.416,307.186c-0.36,0-0.668,0-1.028-0.05
		c-5.23-0.512-9.078-5.18-8.515-10.363c0.41-3.898,3.078-6.977,6.566-8.106c0.977-0.305,1.949-0.461,3.027-0.461h0.821
		c5.183,0.562,9.027,5.23,8.465,10.465c-0.36,3.847-3.078,6.976-6.566,8.054C345.314,307.034,344.388,307.186,343.416,307.186z
		 M314.236,390.413c4.645,6.871,7.054,15.879,6.094,25.481c-1.539,15.133-10.976,27.242-22.828,31.035
		c-2.566,0.824-5.183,1.234-7.902,1.234c-0.871,0-1.742-0.055-2.613-0.157c-16.418-1.64-28.219-18.722-26.266-38.113
		c1.538-15.137,10.976-27.242,22.828-31.039c2.562-0.824,5.179-1.23,7.898-1.23c0.871,0,1.746,0.05,2.617,0.152
		c8.149,0.79,15.149,5.41,19.906,12.23C314.064,390.139,314.146,390.28,314.236,390.413z" style="fill: rgb(75, 75, 75);"></path>
</g>
</svg>
